<?xml version="1.0" encoding="UTF-8" standalone="no"?>
<!-- Created with Inkscape (http://www.inkscape.org/) -->

<svg
   version="1.1"
   id="svg152"
   xml:space="preserve"
   width="772.17334"
   height="382.62668"
   viewBox="0 0 772.17334 382.62668"
   sodipodi:docname="Brown Logo_2016_2 Color Process HZ_2400.svg"
   inkscape:version="1.1.2 (0a00cf5339, 2022-02-04)"
   xmlns:inkscape="http://www.inkscape.org/namespaces/inkscape"
   xmlns:sodipodi="http://sodipodi.sourceforge.net/DTD/sodipodi-0.dtd"
   xmlns="http://www.w3.org/2000/svg"
   xmlns:svg="http://www.w3.org/2000/svg"><defs
     id="defs156" /><sodipodi:namedview
     id="namedview154"
     pagecolor="#ffffff"
     bordercolor="#666666"
     borderopacity="1.0"
     inkscape:pageshadow="2"
     inkscape:pageopacity="0.0"
     inkscape:pagecheckerboard="0"
     showgrid="false"
     inkscape:zoom="1"
     inkscape:cx="563.5"
     inkscape:cy="218.5"
     inkscape:window-width="1846"
     inkscape:window-height="1016"
     inkscape:window-x="74"
     inkscape:window-y="27"
     inkscape:window-maximized="1"
     inkscape:current-layer="g158" /><g
     id="g158"
     inkscape:groupmode="layer"
     inkscape:label="ink_ext_XXXXXX"
     transform="matrix(1.3333333,0,0,-1.3333333,0,382.62667)"><g
       id="g160"
       transform="scale(0.1)"><path
         d="m 2263.26,1732.86 c 69.12,0 108.53,-11.56 140.28,-33.77 32.62,-23.02 49.84,-57.55 49.84,-105.56 0,-84.55 -79.75,-125.83 -125.72,-137.37 v -1.85 c 87.4,-12.49 166.16,-64.4 166.16,-161.44 0,-68.07 -33.62,-116.21 -89.25,-147.83 -49.08,-26.93 -110.51,-36.55 -183.42,-36.55 h -221.03 v 22.18 c 80.79,5.73 88.41,12.52 88.41,117.08 v 345.78 c -0.96,104.73 -6.75,111.38 -82.69,117.12 v 22.21 z m -94.13,-271.8 h 60.52 c 92.17,0 138.29,43.2 138.29,121.92 0,57.63 -23.91,121.93 -137.38,121.93 -31.59,0 -45.06,-2.87 -52.82,-5.82 -5.64,-1.86 -8.61,-5.65 -8.61,-24.89 z m 0,-27.95 v -209.36 c 0,-64.37 12.54,-86.4 82.68,-85.49 80.57,0 148.89,40.36 148.89,142.23 0,104.63 -76.89,152.62 -175.83,152.62 h -55.74"
         style="fill:#231f20;fill-opacity:1;fill-rule:nonzero;stroke:none"
         id="path162" /><path
         d="m 2828.03,1247.75 c 0,-104.56 7.66,-111.35 86.51,-117.08 v -22.18 h -255.61 v 22.18 c 80.74,5.73 88.43,12.52 88.43,117.08 v 345.76 c 0,104.75 -7.69,111.4 -84.58,117.14 v 22.21 h 244.07 c 61.35,0 116.2,-8.69 151.67,-32.74 38.34,-24.05 63.46,-67.18 63.46,-122.87 0,-79.74 -49.08,-136.45 -126.91,-168.07 17.38,-28.89 56.74,-95.21 85.49,-137.4 34.56,-51 54.78,-76.78 80.77,-105.65 20.12,-23.99 37.36,-39.42 72.06,-48.02 l -1.99,-18.33 h -13.47 c -110.36,2.97 -144.05,36.62 -180.5,89.34 -29.77,43.44 -70.17,114.39 -97.1,159.55 -15.26,24.87 -30.61,34.49 -60.43,34.49 h -51.87 z m 0,163.29 h 55.72 c 39.4,0 70.04,4.86 96.1,25.95 41.24,32.67 55.62,79.65 55.62,126.84 0,100.75 -73.04,141.08 -144.99,141.08 -32.68,0 -46.13,-1.94 -53.88,-4.79 -5.7,-1.86 -8.57,-6.68 -8.57,-25.94 v -263.14"
         style="fill:#231f20;fill-opacity:1;fill-rule:nonzero;stroke:none"
         id="path164" /><path
         d="m 3971,1429.33 c 0,-199.84 -139.23,-335.29 -322.67,-335.29 -181.55,0 -310.2,138.52 -310.2,319.83 0,161.42 113.3,333.33 327.42,333.33 166.22,0 305.45,-128.71 305.45,-317.87 m -330.33,286.12 c -113.37,0 -209.43,-93.15 -209.43,-273.63 0,-185.4 97.01,-316.02 237.24,-316.02 115.23,0 209.43,89.24 209.43,267.92 0,207.49 -99.97,321.73 -237.24,321.73"
         style="fill:#231f20;fill-opacity:1;fill-rule:nonzero;stroke:none"
         id="path166" /><path
         d="m 4299.31,1710.65 -29.77,-3.8 c -43.2,-5.74 -48.97,-14.34 -35.65,-56.69 l 129.78,-409.1 h 1.86 l 153.6,482.07 h 23.15 l 173.75,-481.16 h 2.07 c 39.25,121.11 94.97,323.72 111.41,392.82 13.36,55.69 8.4,67.29 -34.63,72.06 l -27.88,3.8 v 22.21 h 203.55 v -22.21 c -63.35,-7.68 -70.03,-11.56 -101.72,-98.88 -8.61,-24.06 -78.81,-244.91 -159.41,-509.02 h -26.06 l -172.77,469.71 -1.92,-1.96 -156.54,-467.75 h -26.87 l -166.15,515.76 c -25.96,79.75 -40.34,86.4 -95.15,92.14 v 22.21 h 235.35 v -22.21"
         style="fill:#231f20;fill-opacity:1;fill-rule:nonzero;stroke:none"
         id="path168" /><path
         d="m 5669.82,1101.74 h -24.87 l -416.97,506.11 h -2 v -244.77 c 0,-100.92 3.89,-152.83 7.73,-182.53 4.9,-33.58 30.68,-46.98 94.17,-49.88 v -22.18 h -230.52 v 22.18 c 52.89,1.95 77.73,16.3 82.66,49.88 3.71,29.7 7.66,81.61 7.66,182.53 v 208.33 c 0,69.2 -0.95,84.67 -18.3,106.67 -18.36,23.03 -44.14,29.68 -84.47,32.57 v 22.21 h 140.06 l 404.48,-484.13 h 1.89 v 229.61 c 0,100.85 -3.74,152.57 -7.56,182.46 -4.86,33.54 -30.92,46.96 -94.2,49.85 v 22.21 H 5760 v -22.21 c -52.75,-1.96 -77.76,-16.31 -82.56,-49.85 -3.91,-29.89 -7.62,-81.61 -7.62,-182.46 v -376.6"
         style="fill:#231f20;fill-opacity:1;fill-rule:nonzero;stroke:none"
         id="path170" /><path
         d="m 579.785,2489.27 c 3.153,-5.16 7.246,-11.82 13.047,-21.41 15.168,-25.09 38.66,-119.67 68.988,-151.01 16.18,10.97 44.176,25.11 60.075,30.82 -3.676,6.14 -20.692,35.24 -39.61,59.99 -36.426,48.35 -62.566,74.16 -65.512,78.34 -9.839,0.14 -26.558,-0.37 -36.988,3.27"
         style="fill:#ffffff;fill-opacity:1;fill-rule:nonzero;stroke:none"
         id="path172" /><path
         d="m 853.086,2363.35 c 7.227,49.5 -9.258,131.68 -18.973,152.25 -12.328,3.13 -25.078,7.47 -35.554,12.5 -1.356,-6.3 -10.657,-39.83 -13.743,-89.21 -1.66,-26.46 -0.968,-66.72 3.907,-75.54 15.668,1.56 41.906,2.1 64.363,0"
         style="fill:#ffffff;fill-opacity:1;fill-rule:nonzero;stroke:none"
         id="path174" /><path
         d="m 984.871,2157.08 c -14.031,11.56 -32.406,16.63 -39.445,11.56 l 0.254,-2.37 c 1.453,-17.03 -11.106,-31.98 -28.102,-33.52 -17.035,-1.5 -32.062,11.17 -33.488,28.13 v 1.33 c -11.106,3.5 -28.813,-2.62 -31.235,-1.67 -1.429,0.67 -8.929,32.14 0.856,36.1 26.66,10.87 112.555,16.18 137.508,-32.05 2.933,-5.84 1.105,-13.62 -6.348,-7.51 z m -131.348,-87.36 c -5.425,-15.76 -61.246,-20.8 -71.507,-0.29 -4.047,8.14 -9.664,29.14 -2.09,24.79 12.414,-7.22 57.324,-2.12 65.82,0 7.504,1.92 2.609,12.38 7.246,11.1 5.543,-1.54 5.543,-20.67 0.531,-35.6 z m -88.613,92.62 c -0.836,-17.08 -15.347,-30.18 -32.461,-29.32 -17.051,0.82 -30.113,15.47 -29.269,32.42 l 0.277,3.4 c -2.625,4.05 -16.527,8.55 -37.176,-3.98 -10.371,-6.38 -22.004,-2 -3.984,13.62 19.141,16.62 37.293,26.25 53.308,28.25 l 0.512,0.12 c 26.981,1.87 62.051,-3.65 78.442,-10.33 6.808,-2.77 -0.262,-36.17 -1.821,-35.77 -5.566,1.23 -17.711,6.36 -27.894,4.04 z m 323.81,-90.6 c 0,148.9 -116.657,265.62 -265.654,265.62 -146.718,0 -265.668,-118.91 -265.668,-265.62 0,-7.02 1.575,-21.24 3.887,-35.62 76.418,17.72 177.75,14.9 222.762,-20.8 72.871,41.57 177.883,44.18 254.793,-0.62 15.28,7.64 31.21,13.16 47.27,17.75 1.92,14.32 2.61,29.31 2.61,39.29"
         style="fill:#ffffff;fill-opacity:1;fill-rule:nonzero;stroke:none"
         id="path176" /><path
         d="m 1001.03,2492.21 c -31.229,-26.45 -78.952,-90.52 -85.046,-141.8 14.661,-5.93 53.375,-24.39 58.664,-28.76 38.412,37.87 30.602,79.61 45.612,111.89 6.51,13.92 12.79,24.9 16.43,31.17 -12.46,6.77 -25.9,16.4 -35.66,27.5"
         style="fill:#ffffff;fill-opacity:1;fill-rule:nonzero;stroke:none"
         id="path178" /><path
         d="m 1187.35,2390.72 c -6.92,-3.8 -23.1,-13.72 -28.55,-17.81 -36.89,-27.78 -116.85,-65.11 -135.27,-85.56 14.69,-13.02 36.38,-36.37 46.19,-55.94 8.98,-0.4 34.79,20.61 85.96,80.83 16.41,19.24 33.87,29.39 65.51,46.99 -13.04,9.31 -24.31,20.15 -33.84,31.49"
         style="fill:#ffffff;fill-opacity:1;fill-rule:nonzero;stroke:none"
         id="path180" /><path
         d="m 543.191,2168.42 c -17.273,17.04 -51.621,31.77 -96.339,28.18 -91.504,-7.19 -151.758,-1.31 -186.336,3.59 -59.207,8.49 -95.985,0.19 -125.571,0.19 -90.0153,0 2.508,-8.1 13.063,-12.2 42.355,-16.72 127.797,-37.89 194.996,-33 32.824,2.29 87.785,-17.69 97.226,-20.96 24.161,-8.63 67.86,-22.69 91.465,-22.25 1.285,10.8 6.864,42.93 11.496,56.45"
         style="fill:#ffffff;fill-opacity:1;fill-rule:nonzero;stroke:none"
         id="path182" /><path
         d="m 616.871,2280.79 c -46.012,37.11 -88.316,45.03 -155.777,76.71 -15.285,7.19 -40.949,24.47 -42.258,25.18 -1.82,1.31 -5.191,3.43 -9.344,5.95 -3.949,-12.64 -12.004,-29.79 -19.39,-39.39 10.449,-13.58 85.855,-99.63 182.347,-126.44 10.567,18.47 27.61,39.77 44.422,57.99"
         style="fill:#ffffff;fill-opacity:1;fill-rule:nonzero;stroke:none"
         id="path184" /><path
         d="m 1583.89,2214.23 c -4.55,0.72 -21.73,3.01 -32.71,2.95 -14.52,-0.07 -109.88,-0.53 -135.96,-4.52 -53.34,-8.36 -156.59,-4.04 -213.19,-1.89 -42.28,1.64 -90.99,-14.85 -105.85,-22.83 0,0 16.29,-40.72 17.35,-68.42 17.98,-3.19 35.29,19.53 86.63,18.68 53.48,-0.9 185.1,6.27 251.69,32.2 49.75,19.28 91.53,28.94 125.37,35.8 11.31,2.35 29.24,4.57 6.67,8.03"
         style="fill:#ffffff;fill-opacity:1;fill-rule:nonzero;stroke:none"
         id="path186" /><path
         d="m 361.945,2579.71 c 8.559,45.26 52.805,111.16 153.883,85.5 12.41,-3.14 5.098,-34.62 -8.234,-29.33 -73.801,28.94 -110.84,-27.04 -122.789,-71.19 -1.629,-6 -26.352,-3.73 -22.86,15.02 z m -35.59,-55.26 c -41.613,-4.57 -53.792,-24.9 -61.207,-48.2 -3.039,-8.76 -26.386,-2.48 -22.695,14.77 11.039,51.26 66.652,63.8 86.84,59.42 6.793,-1.3 4.703,-25.27 -2.938,-25.99 z m -115.746,-91.56 c -28.445,0 -51.269,-0.6 -71.285,-22.35 -21.406,-23.18 -16.207,-35.92 -20.187,-40.11 -5.848,-5.74 -20.5159,4.39 -20.2464,15.87 1.2424,54.55 67.1324,75.83 106.2034,71.47 14.886,-1.76 18.742,-24.88 5.515,-24.88 z m 401.454,270.99 c 24.441,38.74 108.335,98.35 182.695,32.72 8.355,-7.26 -1.594,-34.22 -10.91,-27.96 -68,46.75 -121.485,9.21 -149.836,-24.62 -13.602,-16.07 -27.778,10.5 -21.949,19.86 z m 224.335,6.95 c 26.614,43.3 165.832,83.6 237.252,-38.87 7.57,-13.33 -2.54,-21.09 -10.55,-26.58 -5.66,-4.04 -9.03,5.16 -12.77,11.17 -60.611,95.89 -170.279,70.6 -199.76,26.13 -5.976,-9.02 -21.925,15.41 -14.172,28.15 z m 301.812,-69.49 c 36.93,13.06 99.83,18.87 116.61,-42.86 4.8,-17.25 -16.39,-25.47 -21.1,-13.39 -17.15,44.69 -49.39,42.92 -87.91,30.64 -17.76,-5.82 -13.46,23.58 -7.6,25.61 z m 171.09,-83.74 c 39.79,22.72 121.2,18.68 146.52,-53.95 4.34,-12.35 -12.05,-33.32 -22.23,-14.63 -30.6,56.24 -80.04,56.11 -121.34,40.35 -9.25,-3.64 -17.61,19.87 -2.95,28.23 z m 175.24,-81.71 c 40.92,9.47 90.06,-20.44 76.12,-75.43 -2.37,-9.42 -25.48,-10.01 -24.67,-0.4 3.53,46.05 -19.23,49.76 -49.54,49.44 -11.47,-0.27 -10.59,24.49 -1.91,26.39 z m -1092.743,4.54 c 4.281,3.62 10.156,3.16 15.516,1.44 45.117,-14.57 109.824,-4.67 139.992,43.09 4.222,6.68 12.582,9.03 19.863,6.08 31.18,-12.63 95.066,-18.48 172.852,60.49 5.847,5.93 15.296,5.19 21.785,-0.07 68.34,-54.84 139.547,-58.25 211.758,-10.23 4.476,2.98 10.179,6.84 15.14,4.81 4.988,-2.02 8.656,-6.39 9.789,-11.66 23.058,-106.67 134.388,-97.21 167.928,-91.8 4.31,0.69 8.72,-0.37 12.25,-2.93 3.51,-2.59 5.84,-6.47 6.44,-10.82 3.65,-24.95 31.3,-73.34 79.2,-98.04 40.95,-21.05 85.52,-19.42 132.61,4.84 4.73,2.44 10.36,2.42 15.09,-0.1 60.43,-32.29 114.81,-34.19 149.16,-5.26 24.22,20.41 34.05,53.65 24.42,82.75 -10.73,32.41 -42.95,52.56 -88.38,55.32 -7.64,0.47 -13.92,6.18 -15.07,13.73 -4.06,25.86 -18.51,47.02 -41.83,61.23 -35.52,21.66 -87.78,24.2 -139.81,6.82 -4.57,-1.5 -9.6,-0.94 -13.71,1.6 -4.11,2.55 -6.86,6.76 -7.55,11.57 -2.86,19.99 -11.52,47.05 -36.56,62.36 -26.41,16.14 -66.27,15.75 -115.32,-1.13 -7.62,-2.62 -16.02,0.72 -19.74,7.85 -31.52,60.43 -75.84,99.69 -128.104,113.53 -46.797,12.42 -98.797,3.4 -142.68,-24.78 -5.723,-3.69 -13.148,-3.44 -18.629,0.65 -44.152,33.16 -96.988,43.73 -144.973,29.04 -46.726,-14.27 -82.328,-50.76 -100.281,-102.71 -1.473,-4.21 -4.574,-7.65 -8.617,-9.47 -4.066,-1.87 -8.695,-1.96 -12.848,-0.3 -71.593,28.74 -130.035,28.01 -169.039,-2.13 -33.508,-25.89 -43.855,-66.68 -42.355,-78.57 1.078,-8.23 -3.875,-15.83 -11.946,-17.79 l -17.117,-4.11 c -39.676,-9.05 -80.734,-18.46 -93.101,-81.59 -1.371,-7.02 -7.219,-12.35 -14.375,-13.06 -68.973,-6.88 -114.0355,-32.43 -123.5667,-70.12 -6.711,-26.55 5.6172,-56.63 30.0037,-73.12 24.531,-16.63 54.082,-14.89 81.129,4.75 4.438,3.23 10.246,4.01 15.371,2.03 40.5,-15.49 106.203,-12.42 146.047,19.51 28.871,23.16 40.199,57.32 33.676,101.5 -0.824,5.59 1.262,11.18 5.582,14.8"
         style="fill:#ffffff;fill-opacity:1;fill-rule:nonzero;stroke:none"
         id="path188" /><path
         d="m 156.957,2023.71 c -48.926,1.04 -89.6797,-12.77 -104.0468,-37.88 -26.461,-46.24 4.6406,-86.12 23.2461,-97.29 42.5317,-25.58 83.0817,-8.88 86.0817,6.85 -11.621,13.1 -31.672,42.72 -42.906,42.99 -16.336,0.42 -15.016,21.62 -3.141,25.47 28.418,9.4 56.051,-44.55 96.872,-73.71 36.378,-26.03 87.386,-6.96 87.386,3.74 -22.261,20.13 -48.851,127.71 -143.492,129.83"
         style="fill:#ffffff;fill-opacity:1;fill-rule:nonzero;stroke:none"
         id="path190" /><path
         d="m 1130.41,1896.5 c 33.84,-34.29 80,-19.59 82.15,-8.36 -3.79,6.84 -25.14,38.28 -37.7,45.11 -10.24,5.64 -16.89,15.02 -11.35,22.86 9.21,13.02 27.69,3.79 39.52,-10.48 11.81,-14.44 44.4,-56.89 55.83,-63.4 29.66,-16.41 95.05,-10.51 89.77,8.57 -18.1,28.64 -30.59,86.5 -84.46,111.82 -55.98,26.39 -127.69,19.51 -194.12,-4.18 11.93,-23.78 43.05,-84.52 60.36,-101.94"
         style="fill:#ffffff;fill-opacity:1;fill-rule:nonzero;stroke:none"
         id="path192" /><path
         d="m 737.535,2004.54 c -56.035,26.41 -135.125,17.59 -201.617,-6.02 18.418,-24.55 49.051,-81.89 64.852,-101.23 30.582,-37.22 82.886,-18.42 85.039,-7.19 -3.664,6.86 -31.739,43.19 -42.317,49.26 -9.867,5.65 -15.605,14.65 -10.058,22.49 9.269,13.04 31.078,0 42.914,-14.27 11.812,-14.36 44.992,-55.94 55.902,-63.31 32.715,-22.17 95.074,-10.62 89.828,8.41 -21.433,28.32 -30.781,86.59 -84.543,111.86"
         style="fill:#ffffff;fill-opacity:1;fill-rule:nonzero;stroke:none"
         id="path194" /><path
         d="m 317.801,1576 c -39.781,-1.17 -78.707,-16.85 -101.567,-12.86 v -266.42 c 0,0 14.43,-10.97 54.34,0.38 51.664,14.7 74.66,-1.45 74.66,-1.45 v 268.8 c 0,0 -6.015,12.21 -27.433,11.55"
         style="fill:#ffffff;fill-opacity:1;fill-rule:nonzero;stroke:none"
         id="path196" /><path
         d="m 460.465,461.832 c 39.906,-11.402 54.348,-0.402 54.348,-0.402 v 266.429 c -22.868,-3.968 -61.79,11.723 -101.629,12.961 -21.368,0.7 -27.442,-11.531 -27.442,-11.531 V 460.512 c 0,0 23.055,16.09 74.723,1.32"
         style="fill:#ffffff;fill-opacity:1;fill-rule:nonzero;stroke:none"
         id="path198" /><path
         d="m 1328.01,1576 c -21.38,0.66 -27.51,-11.55 -27.51,-11.55 v -268.8 c 0,0 22.98,16.15 74.71,1.45 39.91,-11.35 54.36,-0.38 54.36,-0.38 v 266.42 c -22.85,-3.99 -61.79,11.69 -101.56,12.86"
         style="fill:#ffffff;fill-opacity:1;fill-rule:nonzero;stroke:none"
         id="path200" /><path
         d="m 413.168,1576 c -21.371,0.66 -27.449,-11.55 -27.449,-11.55 v -268.8 c 0,0 23.066,16.15 74.73,1.45 39.899,-11.35 54.336,-0.38 54.336,-0.38 v 266.42 C 491.934,1559.15 453,1574.83 413.168,1576"
         style="fill:#ffffff;fill-opacity:1;fill-rule:nonzero;stroke:none"
         id="path202" /><path
         d="m 345.309,460.512 v 268.777 c 0,0 -6.079,12.231 -27.43,11.531 -39.84,-1.238 -78.774,-16.929 -101.563,-12.961 V 461.43 c 0,0 14.368,-11 54.27,0.402 51.668,14.77 74.723,-1.32 74.723,-1.32"
         style="fill:#ffffff;fill-opacity:1;fill-rule:nonzero;stroke:none"
         id="path204" /><path
         d="M 1305.54,729.289 V 460.512 c 0,0 22.99,16.09 74.65,1.32 39.93,-11.402 54.29,-0.402 54.29,-0.402 v 266.429 c -22.88,-3.968 -61.72,11.723 -101.5,12.961 -21.48,0.7 -27.44,-11.531 -27.44,-11.531"
         style="fill:#ffffff;fill-opacity:1;fill-rule:nonzero;stroke:none"
         id="path206" /><path
         d="m 1232.63,1576 c -39.77,-1.17 -78.76,-16.85 -101.63,-12.86 v -266.42 c 0,0 14.45,-10.97 54.41,0.38 51.54,14.7 74.6,-1.45 74.6,-1.45 v 268.8 c 0,0 -5.96,12.21 -27.38,11.55"
         style="fill:#ffffff;fill-opacity:1;fill-rule:nonzero;stroke:none"
         id="path208" /><path
         d="M 1136.05,727.859 V 461.43 c 0,0 14.38,-11 54.27,0.402 51.68,14.77 74.73,-1.32 74.73,-1.32 v 268.777 c 0,0 -6.09,12.231 -27.49,11.531 -39.79,-1.238 -78.71,-16.929 -101.51,-12.961"
         style="fill:#ffffff;fill-opacity:1;fill-rule:nonzero;stroke:none"
         id="path210" /><path
         d="m 1506.32,1233.23 h -183.07 v -22.99 h -75.92 v 22.99 h -183.06 v 309.39 h 38.96 v 56.31 c 39.73,-9.59 104.52,12.29 133.44,12.22 32.29,-0.08 48.61,-13.98 48.61,-13.98 0,0 16.64,13.98 48.59,13.98 28.95,0 93.67,-21.62 133.44,-12.22 v -56.31 h 39.01 z m 95.26,461.13 H 962.621 v -579.42 h 638.959 v 579.42"
         style="fill:#ffffff;fill-opacity:1;fill-rule:nonzero;stroke:none"
         id="path212" /><path
         d="M 586.57,1233.23 H 403.488 v -22.99 H 327.59 v 22.99 H 144.449 v 309.39 h 39.063 v 56.31 c 39.703,-9.59 104.511,12.29 133.429,12.22 32.27,-0.08 48.657,-13.98 48.657,-13.98 0,0 16.601,13.98 48.539,13.98 28.929,0 93.66,-21.62 133.371,-12.22 v -56.31 h 39.062 z m 97.317,461.13 H 44.4492 V 1114.94 H 683.887 v 579.42"
         style="fill:#ffffff;fill-opacity:1;fill-rule:nonzero;stroke:none"
         id="path214" /><path
         d="m 962.621,78.9609 c 161.119,46.6211 320.719,108.9301 428.789,207.7581 38.25,34.953 70.01,71.48 96.6,111.312 h -164.76 v -23.019 h -75.88 v 23.019 h -183.18 v 309.461 h 39.15 v 56.317 c 39.63,-9.598 104.42,12.203 133.37,12.203 32.27,-0.063 48.59,-14.043 48.59,-14.043 0,0 16.64,14.043 48.54,14.043 28.99,0 93.72,-21.66 133.44,-12.203 v -56.317 h 39.13 V 427.621 c 58.83,101.77 86.79,226.359 96.29,401.438 l -1.12,26.101 H 962.621 V 78.9609"
         style="fill:#ffffff;fill-opacity:1;fill-rule:nonzero;stroke:none"
         id="path216" /><path
         d="m 144.465,430.77 v 276.722 h 39.129 v 56.317 c 39.644,-9.598 104.441,12.203 133.379,12.203 32.261,-0.063 48.66,-14.043 48.66,-14.043 0,0 16.582,14.043 48.523,14.043 28.942,0 93.664,-21.66 133.367,-12.203 v -56.317 h 39.063 V 398.031 H 403.438 v -23.019 h -75.825 v 23.019 H 164.492 C 190.582,358.5 221.406,321.898 257.699,287.891 359.531,192.461 519.309,127.68 683.809,79.5 V 855.16 H 44.4492 l 1.336,-24.551 C 52.1484,670.48 82.2227,539.859 144.465,430.77"
         style="fill:#ffffff;fill-opacity:1;fill-rule:nonzero;stroke:none"
         id="path218" /><path
         d="m 1577.22,2206.2 c -33.84,-6.86 -75.62,-16.52 -125.37,-35.8 -66.59,-25.93 -198.21,-33.1 -251.69,-32.2 -51.34,0.85 -68.65,-21.87 -86.63,-18.68 -1.06,27.7 -17.35,68.42 -17.35,68.42 14.86,7.98 63.57,24.47 105.85,22.83 56.6,-2.15 159.85,-6.47 213.19,1.89 26.08,3.99 121.44,4.45 135.96,4.52 10.98,0.06 28.16,-2.23 32.71,-2.95 22.57,-3.46 4.64,-5.68 -6.67,-8.03 z m -313.05,-203.58 c 53.87,-25.32 66.36,-83.18 84.46,-111.82 5.28,-19.08 -60.11,-24.98 -89.77,-8.57 -11.43,6.51 -44.02,48.96 -55.83,63.4 -11.83,14.27 -30.31,23.5 -39.52,10.48 -5.54,-7.84 1.11,-17.22 11.35,-22.86 12.56,-6.83 33.91,-38.27 37.7,-45.11 -2.15,-11.23 -48.31,-25.93 -82.15,8.36 -17.31,17.42 -48.43,78.16 -60.36,101.94 66.43,23.69 138.14,30.57 194.12,4.18 z m 198.1,18.34 c 116.65,-9.89 144.4,-86.69 132.79,-111.61 -10.21,-21.89 -81.65,-50.29 -189.95,-19.78 -35.73,15.92 -64.08,98.21 -74.51,108.73 -4.25,4.18 63.13,28.52 131.67,22.66 z M 878.781,1885.67 c -35.644,15.9 -64.015,98.2 -74.558,108.72 -4.231,4.17 63.265,28.51 131.781,22.65 116.726,-9.88 117.056,-82.39 145.726,-118.47 10.52,-13.23 -94.574,-43.44 -202.949,-12.9 z m -146.531,-1.4 c -10.91,7.37 -44.09,48.95 -55.902,63.31 -11.836,14.27 -33.645,27.31 -42.914,14.27 -5.547,-7.84 0.191,-16.84 10.058,-22.49 10.578,-6.07 38.653,-42.4 42.317,-49.26 -2.153,-11.23 -54.457,-30.03 -85.039,7.19 -15.801,19.34 -46.434,76.68 -64.852,101.23 66.492,23.61 145.582,32.43 201.617,6.02 53.762,-25.27 63.11,-83.54 84.543,-111.86 5.246,-19.03 -57.113,-30.58 -89.828,-8.41 z m -381.828,7.33 c -35.734,15.85 -64.016,98.14 -74.527,108.66 -4.184,4.18 63.23,28.65 131.738,22.73 116.644,-9.93 116.976,-82.38 145.711,-118.55 10.465,-13.15 -94.637,-43.3 -202.922,-12.84 z m -137.359,-1.46 c -40.821,29.16 -68.454,83.11 -96.872,73.71 -11.875,-3.85 -13.195,-25.05 3.141,-25.47 11.234,-0.27 31.285,-29.89 42.906,-42.99 -3,-15.73 -43.55,-32.43 -86.0817,-6.85 -18.6055,11.17 -49.7071,51.05 -23.2461,97.29 14.3671,25.11 55.1208,38.92 104.0468,37.88 94.641,-2.12 121.231,-109.7 143.492,-129.83 0,-10.7 -51.008,-29.77 -87.386,-3.74 z m 227.167,244.08 c -9.441,3.27 -64.402,23.25 -97.226,20.96 -67.199,-4.89 -152.641,16.28 -194.996,33 -10.555,4.1 -103.0783,12.2 -13.063,12.2 29.586,0 66.364,8.3 125.571,-0.19 34.578,-4.9 94.832,-10.78 186.336,-3.59 44.718,3.59 79.066,-11.14 96.339,-28.18 -4.632,-13.52 -10.211,-45.65 -11.496,-56.45 -23.605,-0.44 -67.304,13.62 -91.465,22.25 z m -50.128,215.02 c 7.386,9.6 15.441,26.75 19.39,39.39 4.153,-2.52 7.524,-4.64 9.344,-5.95 1.309,-0.71 26.973,-17.99 42.258,-25.18 67.461,-31.68 109.765,-39.6 155.777,-76.71 -16.812,-18.22 -33.855,-39.52 -44.422,-57.99 -96.492,26.81 -171.898,112.86 -182.347,126.44 z m -37.563,14.89 c -39.844,-31.93 -105.547,-35 -146.047,-19.51 -5.125,1.98 -10.933,1.2 -15.371,-2.03 -27.047,-19.64 -56.598,-21.38 -81.129,-4.75 -24.3865,16.49 -36.7147,46.57 -30.0037,73.12 9.5312,37.69 54.5937,63.24 123.5667,70.12 7.156,0.71 13.004,6.04 14.375,13.06 12.367,63.13 53.425,72.54 93.101,81.59 l 17.117,4.11 c 8.071,1.96 13.024,9.56 11.946,17.79 -1.5,11.89 8.847,52.68 42.355,78.57 39.004,30.14 97.446,30.87 169.039,2.13 4.153,-1.66 8.782,-1.57 12.848,0.3 4.043,1.82 7.144,5.26 8.617,9.47 17.953,51.95 53.555,88.44 100.281,102.71 47.985,14.69 100.821,4.12 144.973,-29.04 5.481,-4.09 12.906,-4.34 18.629,-0.65 43.883,28.18 95.883,37.2 142.68,24.78 52.264,-13.84 96.584,-53.1 128.104,-113.53 3.72,-7.13 12.12,-10.47 19.74,-7.85 49.05,16.88 88.91,17.27 115.32,1.13 25.04,-15.31 33.7,-42.37 36.56,-62.36 0.69,-4.81 3.44,-9.02 7.55,-11.57 4.11,-2.54 9.14,-3.1 13.71,-1.6 52.03,17.38 104.29,14.84 139.81,-6.82 23.32,-14.21 37.77,-35.37 41.83,-61.23 1.15,-7.55 7.43,-13.26 15.07,-13.73 45.43,-2.76 77.65,-22.91 88.38,-55.32 9.63,-29.1 -0.2,-62.34 -24.42,-82.75 -34.35,-28.93 -88.73,-27.03 -149.16,5.26 -4.73,2.52 -10.36,2.54 -15.09,0.1 -47.09,-24.26 -91.66,-25.89 -132.61,-4.84 -47.9,24.7 -75.55,73.09 -79.2,98.04 -0.6,4.35 -2.93,8.23 -6.44,10.82 -3.53,2.56 -7.94,3.62 -12.25,2.93 -33.54,-5.41 -144.87,-14.87 -167.928,91.8 -1.133,5.27 -4.801,9.64 -9.789,11.66 -4.961,2.03 -10.664,-1.83 -15.14,-4.81 -72.211,-48.02 -143.418,-44.61 -211.758,10.23 -6.489,5.26 -15.938,6 -21.785,0.07 -77.786,-78.97 -141.672,-73.12 -172.852,-60.49 -7.281,2.95 -15.641,0.6 -19.863,-6.08 -30.168,-47.76 -94.875,-57.66 -139.992,-43.09 -5.36,1.72 -11.235,2.18 -15.516,-1.44 -4.32,-3.62 -6.406,-9.21 -5.582,-14.8 6.523,-44.18 -4.805,-78.34 -33.676,-101.5 z m 545.004,40.79 c -7.316,-18.51 -10.18,-28.28 -12.926,-38.69 5.703,39.81 -5.101,98.03 -16.687,148.33 34.742,-0.73 69.902,8.39 104.8,28.17 2.704,-7.86 6.305,-14.73 9.86,-21.58 -19.695,-17.96 -66.762,-69.63 -85.047,-116.23 z m 163.387,38.93 c 1.24,2.15 2.68,4.94 4.18,7.94 28.6,-9.51 59.99,-12.02 90.78,-8.63 3.12,-10.08 7.94,-20.82 14.15,-31.64 -0.14,-0.03 -0.44,-0.23 -0.51,-0.27 -15.23,-7.25 -61.45,-38.86 -128.96,-76.47 -17.47,-9.67 -28.23,-18.98 -34.41,-25.35 7.43,10 16.5,23.21 22.22,37.82 11.89,30.43 8.73,54.86 32.55,96.6 z m -40.67,-10.31 c -15.01,-32.28 -7.2,-74.02 -45.612,-111.89 -5.289,4.37 -44.003,22.83 -58.664,28.76 6.094,51.28 53.817,115.35 85.046,141.8 9.76,-11.1 23.2,-20.73 35.66,-27.5 -3.64,-6.27 -9.92,-17.25 -16.43,-31.17 z m -235.444,5.35 c 3.086,49.38 12.387,82.91 13.743,89.21 10.476,-5.03 23.226,-9.37 35.554,-12.5 9.715,-20.57 26.2,-102.75 18.973,-152.25 -22.457,2.1 -48.695,1.56 -64.363,0 -4.875,8.82 -5.567,49.08 -3.907,75.54 z m 38.25,-101.53 c 148.997,0 265.654,-116.72 265.654,-265.62 0,-9.98 -0.69,-24.97 -2.61,-39.29 -16.06,-4.59 -31.99,-10.11 -47.27,-17.75 -76.91,44.8 -181.922,42.19 -254.793,0.62 -45.012,35.7 -146.344,38.52 -222.762,20.8 -2.312,14.38 -3.887,28.6 -3.887,35.62 0,146.71 118.95,265.62 265.668,265.62 z m -140.781,70.3 c 18.918,-24.75 35.934,-53.85 39.61,-59.99 -15.899,-5.71 -43.895,-19.85 -60.075,-30.82 -30.328,31.34 -53.82,125.92 -68.988,151.01 -5.801,9.59 -9.894,16.25 -13.047,21.41 10.43,-3.64 27.149,-3.13 36.988,-3.27 2.946,-4.18 29.086,-29.99 65.512,-78.34 z m 68.133,-44.48 1.145,-2.45 c 0,0 -23.723,35.61 -26.586,40.15 -8.118,12.41 -18.688,24.95 -30.512,39.51 -18.563,22.47 -34.879,40.72 -47.469,54.35 31.082,7.6 66.57,25.33 104.797,61.37 4.07,-2.97 8.187,-5.21 12.297,-7.81 -2.086,-12.25 -4.016,-23.34 -5.481,-31.37 -8.816,-48.12 -9.437,-85.1 -10.062,-100.97 -0.664,-15.04 0.808,-38.8 1.871,-52.78 z m -332.074,79.78 c 43.004,-6.78 93.078,3.27 129.492,36.02 44.703,-71.39 45.879,-136.04 89.019,-180.59 -54.472,52.71 -101.988,51.7 -179.906,93.74 -13.453,7.25 -33.543,20.3 -39.199,23.17 -0.09,0.07 -0.254,0.14 -0.352,0.2 0.887,6.57 1.438,13.39 1.438,20.73 0,2.1 -0.43,4.55 -0.492,6.73 z m 737.336,-130.72 c -51.17,-60.22 -76.98,-81.23 -85.96,-80.83 -9.81,19.57 -31.5,42.92 -46.19,55.94 18.42,20.45 98.38,57.78 135.27,85.56 5.45,4.09 21.63,14.01 28.55,17.81 9.53,-11.34 20.8,-22.18 33.84,-31.49 -31.64,-17.6 -49.1,-27.75 -65.51,-46.99 z m 516.96,-81.41 c -9.61,7.05 -111.49,19.59 -127.37,19.59 -15.49,0 -103.48,-0.79 -137.46,-5.94 -52.81,-7.84 -142.92,-7.84 -211.36,0 -24.77,2.9 -52.17,-3.14 -74.61,-10.39 4.41,3.7 9.14,8 14.82,13.85 20.2,20.77 42.82,60.22 82.96,79.88 10.16,5.03 19.62,10.16 28.83,15.31 33.7,-16.84 86.81,-28.28 152.83,2.78 98.49,-49.17 157.24,-15.91 178.01,1.6 25.41,21.42 39.59,53.03 39.59,84.88 0,11.09 -1.71,22.24 -5.29,32.98 -14.17,42.81 -53.22,69.5 -106.87,75.77 -3.07,11.43 -7.94,22.01 -13.78,32.04 6.23,7.93 12.14,15.42 15.99,19.95 4.67,5.87 20.85,32.73 -22.48,10.33 -2.24,-1.15 -6.37,-3.44 -11.68,-6.44 -6.07,6 -12.74,11.52 -20.4,16.19 -40.39,24.63 -95.01,27.63 -151.26,12.61 -7.89,29.98 -22.72,55.29 -46.33,69.73 -24.76,15.15 -55.95,19.52 -92.7,13.9 2.29,5.39 4.39,10.16 6.14,13.91 16.34,34.23 7.53,42.8 -9.64,27.63 -19.37,-17.18 -31.58,-29.42 -40.91,-39.29 -34.76,55.8 -80.55,93.48 -134.658,107.82 -46.949,12.43 -97.649,5.84 -143.375,-16.27 -2.723,22.99 -5.723,41.89 -9.047,52.77 -8.527,27.76 -18.692,5.95 -20.289,-2.61 -1.895,-11.59 -4.52,-27.53 -7.559,-45.98 -45.683,24.4 -96.426,31.16 -143.91,16.62 -52.156,-15.96 -91.914,-54.82 -114.824,-108.82 -18.945,6.73 -36.086,10.82 -52.223,13.66 -9.562,12.53 -23.715,28.45 -43.492,45.75 -13.328,11.82 -24.332,5.68 -16.336,-17.64 3.133,-9.01 5.848,-17 8.363,-24.55 -37.203,-2.06 -64.371,-14.27 -82.652,-28.38 -36.133,-27.93 -50.855,-67.9 -53.797,-93.27 -2.125,-0.53 -4.961,-1.22 -4.961,-1.22 -30.308,-6.95 -71.226,-18.35 -96.863,-58.77 -4.531,2.8 -7.84,4.85 -9.211,5.75 -76.418,50.74 -41.188,-14.53 -11.625,-43.31 -101.6329,-14.37 -130.3008,-63.2 -137.6485,-92.2 -1.8672,-7.36 -2.7852,-14.92 -2.7852,-22.46 0,-32.95 17.1915,-66 46.086,-85.6 33.9647,-22.99 75.1717,-21.58 111.8207,1.86 47.847,-15.42 115.441,-12.93 163.933,22.34 27.969,-30.14 50.559,-51.53 62.805,-63.71 30.469,-30.31 75.144,-53.39 98.008,-62.05 -22.598,8.75 -60.219,18.16 -97.844,12.94 -81.242,-11.32 -135.164,3.39 -169.941,6.84 -57.321,5.68 -116.235,-4.18 -145.567,-4.18 -31.0897,0 -74.9803,-14.62 -96.371,-17.76 -23.12497,-3.47 -21.62106,-18.75 10.5625,-27.29 31.8555,-8.63 91.5585,-13.93 107.7535,-20.85 51.864,-22.52 138.629,-41.34 199.797,-36.43 43.407,3.32 87.11,-17.85 98.332,-21.17 21.524,-6.61 74.883,-21.17 96.805,-20.78 0,1.32 0,-30.82 2.27,-46.01 -8.313,-2.75 -16.274,-5.64 -23.403,-8.91 -24.293,14.76 -130.89,57.99 -260.734,4.18 -27.43,9.49 -85.508,41.53 -165.0587,15.34 -98.2305,-32.42 -82.293019,-122.37 -49.8985,-163.58 43.8203,-55.74 124.8872,-44.45 148.4692,-16.4 52.769,-35.04 106.589,-23.18 145.652,1.05 25.668,-15.09 151.988,-40.13 247.996,-1.05 13.133,-9.77 65.84,-37.28 133.508,-3.2 39.058,-23.18 103.66,-24.97 136.812,4.25 12.028,-10.22 48.078,-24.86 124.883,-23.97 92.237,1.1 113.657,14.86 126.587,26.1 19.87,-9.21 71.64,-36.29 135.72,-8.95 34.55,-21.75 103.73,-20.48 140.83,3.84 67.79,-30.81 192.14,-16.87 223.25,4.58 55.65,38.6 28.74,117.28 -32.55,154.61 -120.49,60.73 -232.64,13.61 -262.42,-1.67 -35.48,23.96 -109.73,39.32 -186.83,25.02 1.2,9.17 -0.16,19.66 -0.16,31.35 0,1.24 -0.18,2.4 -0.21,3.65 15.28,4.64 37,21.1 81.23,23.87 60.18,4.06 202.16,2.16 273.14,38.54 40.51,20.71 181.44,48.33 200.24,59.31 19.4,11.1 14.28,19.33 4.36,26.13"
         style="fill:#231f20;fill-opacity:1;fill-rule:nonzero;stroke:none"
         id="path220" /><path
         d="m 210.609,2432.89 c -28.445,0 -51.269,-0.6 -71.285,-22.35 -21.406,-23.18 -16.207,-35.92 -20.187,-40.11 -5.848,-5.74 -20.5159,4.39 -20.2464,15.87 1.2424,54.55 67.1324,75.83 106.2034,71.47 14.886,-1.76 18.742,-24.88 5.515,-24.88"
         style="fill:#231f20;fill-opacity:1;fill-rule:nonzero;stroke:none"
         id="path222" /><path
         d="m 326.355,2524.45 c -41.613,-4.57 -53.792,-24.9 -61.207,-48.2 -3.039,-8.76 -26.386,-2.48 -22.695,14.77 11.039,51.26 66.652,63.8 86.84,59.42 6.793,-1.3 4.703,-25.27 -2.938,-25.99"
         style="fill:#231f20;fill-opacity:1;fill-rule:nonzero;stroke:none"
         id="path224" /><path
         d="m 507.594,2635.88 c -73.801,28.94 -110.84,-27.04 -122.789,-71.19 -1.629,-6 -26.352,-3.73 -22.86,15.02 8.559,45.26 52.805,111.16 153.883,85.5 12.41,-3.14 5.098,-34.62 -8.234,-29.33"
         style="fill:#231f20;fill-opacity:1;fill-rule:nonzero;stroke:none"
         id="path226" /><path
         d="m 783.848,2708.64 c -68,46.75 -121.485,9.21 -149.836,-24.62 -13.602,-16.07 -27.778,10.5 -21.949,19.86 24.441,38.74 108.335,98.35 182.695,32.72 8.355,-7.26 -1.594,-34.22 -10.91,-27.96"
         style="fill:#231f20;fill-opacity:1;fill-rule:nonzero;stroke:none"
         id="path228" /><path
         d="m 1063.1,2645.38 c -5.66,-4.04 -9.03,5.16 -12.77,11.17 -60.611,95.89 -170.279,70.6 -199.76,26.13 -5.976,-9.02 -21.925,15.41 -14.172,28.15 26.614,43.3 165.832,83.6 237.252,-38.87 7.57,-13.33 -2.54,-21.09 -10.55,-26.58"
         style="fill:#231f20;fill-opacity:1;fill-rule:nonzero;stroke:none"
         id="path230" /><path
         d="m 1233.72,2585.09 c -17.15,44.69 -49.39,42.92 -87.91,30.64 -17.76,-5.82 -13.46,23.58 -7.6,25.61 36.93,13.06 99.83,18.87 116.61,-42.86 4.8,-17.25 -16.39,-25.47 -21.1,-13.39"
         style="fill:#231f20;fill-opacity:1;fill-rule:nonzero;stroke:none"
         id="path232" /><path
         d="m 1433.59,2489.02 c -30.6,56.24 -80.04,56.11 -121.34,40.35 -9.25,-3.64 -17.61,19.87 -2.95,28.23 39.79,22.72 121.2,18.68 146.52,-53.95 4.34,-12.35 -12.05,-33.32 -22.23,-14.63"
         style="fill:#231f20;fill-opacity:1;fill-rule:nonzero;stroke:none"
         id="path234" /><path
         d="m 1560.66,2400.46 c -2.37,-9.42 -25.48,-10.01 -24.67,-0.4 3.53,46.05 -19.23,49.76 -49.54,49.44 -11.47,-0.27 -10.59,24.49 -1.91,26.39 40.92,9.47 90.06,-20.44 76.12,-75.43"
         style="fill:#231f20;fill-opacity:1;fill-rule:nonzero;stroke:none"
         id="path236" /><path
         d="m 764.91,2162.34 c -0.836,-17.08 -15.347,-30.18 -32.461,-29.32 -17.051,0.82 -30.113,15.47 -29.269,32.42 l 0.277,3.4 c -2.625,4.05 -16.527,8.55 -37.176,-3.98 -10.371,-6.38 -22.004,-2 -3.984,13.62 19.141,16.62 37.293,26.25 53.308,28.25 l 0.512,0.12 c 26.981,1.87 62.051,-3.65 78.442,-10.33 6.808,-2.77 -0.262,-36.17 -1.821,-35.77 -5.566,1.23 -17.711,6.36 -27.894,4.04 l 0.066,-2.45"
         style="fill:#231f20;fill-opacity:1;fill-rule:nonzero;stroke:none"
         id="path238" /><path
         d="m 853.523,2069.72 c -5.425,-15.76 -61.246,-20.8 -71.507,-0.29 -4.047,8.14 -9.664,29.14 -2.09,24.79 12.414,-7.22 57.324,-2.12 65.82,0 7.504,1.92 2.609,12.38 7.246,11.1 5.543,-1.54 5.543,-20.67 0.531,-35.6"
         style="fill:#231f20;fill-opacity:1;fill-rule:nonzero;stroke:none"
         id="path240" /><path
         d="m 984.871,2157.08 c -14.031,11.56 -32.406,16.63 -39.445,11.56 l 0.254,-2.37 c 1.453,-17.03 -11.106,-31.98 -28.102,-33.52 -17.035,-1.5 -32.062,11.17 -33.488,28.13 v 1.33 c -11.106,3.5 -28.813,-2.62 -31.235,-1.67 -1.429,0.67 -8.929,32.14 0.856,36.1 26.66,10.87 112.555,16.18 137.508,-32.05 2.933,-5.84 1.105,-13.62 -6.348,-7.51"
         style="fill:#231f20;fill-opacity:1;fill-rule:nonzero;stroke:none"
         id="path242" /><path
         d="M 5.32813,1733.41 V 875.941 C 5.32813,592.539 76.1445,396.27 227.551,258.379 377.934,121.512 603.133,52.0117 823.32,0 c 226.16,53.4219 443.82,120.082 595.68,258.379 151.47,137.891 221.85,334.16 221.85,617.562 V 1733.41 Z M 1265.05,729.289 V 460.512 c 0,0 -23.05,16.09 -74.73,1.32 -39.89,-11.402 -54.27,-0.402 -54.27,-0.402 v 266.429 c 22.8,-3.968 61.72,11.723 101.51,12.961 21.4,0.7 27.49,-11.531 27.49,-11.531 z m 169.43,-1.43 V 461.43 c 0,0 -14.36,-11 -54.29,0.402 -51.66,14.77 -74.65,-1.32 -74.65,-1.32 v 268.777 c 0,0 5.96,12.231 27.44,11.531 39.78,-1.238 78.62,-16.929 101.5,-12.961 z m 71.93,-300.238 v 279.871 h -39.13 v 56.317 c -39.72,-9.457 -104.45,12.203 -133.44,12.203 -31.9,0 -48.54,-14.043 -48.54,-14.043 0,0 -16.32,13.98 -48.59,14.043 -28.95,0 -93.74,-21.801 -133.37,-12.203 v -56.317 h -39.15 V 398.031 h 183.18 v -23.019 h 75.88 v 23.019 h 164.76 c -26.59,-39.832 -58.35,-76.359 -96.6,-111.312 C 1283.34,187.891 1123.74,125.582 962.621,78.9609 V 855.16 h 638.959 l 1.12,-26.101 C 1593.2,653.98 1565.24,529.391 1506.41,427.621 Z M 929.215,68.8789 823.32,41.9297 717.191,69.3008 V 890.77 H 44.4492 v 188.58 H 717.191 v 615.01 H 929.215 V 1079.35 H 1601.58 V 890.77 H 929.215 Z M 385.742,460.512 v 268.777 c 0,0 6.074,12.231 27.442,11.531 39.839,-1.238 78.761,-16.929 101.629,-12.961 V 461.43 c 0,0 -14.442,-11 -54.348,0.402 -51.668,14.77 -74.723,-1.32 -74.723,-1.32 z m -169.426,0.918 v 266.429 c 22.789,-3.968 61.723,11.723 101.563,12.961 21.351,0.7 27.43,-11.531 27.43,-11.531 V 460.512 c 0,0 -23.055,16.09 -74.723,1.32 -39.902,-11.402 -54.27,-0.402 -54.27,-0.402 z M 683.809,79.5 c -164.5,48.18 -324.278,112.961 -426.11,208.391 -36.293,34.007 -67.117,70.609 -93.207,110.14 h 163.121 v -23.019 h 75.825 v 23.019 h 183.148 v 309.461 h -39.063 v 56.317 c -39.703,-9.457 -104.425,12.203 -133.367,12.203 -31.941,0 -48.523,-14.043 -48.523,-14.043 0,0 -16.399,13.98 -48.66,14.043 -28.938,0 -93.735,-21.801 -133.379,-12.203 V 707.492 H 144.465 V 430.77 C 82.2227,539.859 52.1484,670.48 45.7852,830.609 l -1.336,24.551 H 683.809 Z M 44.4492,1694.36 H 683.887 V 1114.94 H 44.4492 Z m 918.1718,0 H 1601.58 V 1114.94 H 962.621 v 579.42"
         style="fill:#231f20;fill-opacity:1;fill-rule:nonzero;stroke:none"
         id="path244" /><path
         d="m 514.785,1296.72 c 0,0 -14.437,-10.97 -54.336,0.38 -51.664,14.7 -74.73,-1.45 -74.73,-1.45 v 268.8 c 0,0 6.078,12.21 27.449,11.55 39.832,-1.17 78.766,-16.85 101.617,-12.86 z m -169.551,-1.07 c 0,0 -22.996,16.15 -74.66,1.45 -39.91,-11.35 -54.34,-0.38 -54.34,-0.38 v 266.42 c 22.86,-3.99 61.786,11.69 101.567,12.86 21.418,0.66 27.433,-11.55 27.433,-11.55 z m 202.274,246.97 v 56.31 c -39.711,-9.4 -104.442,12.22 -133.371,12.22 -31.938,0 -48.539,-13.98 -48.539,-13.98 0,0 -16.387,13.9 -48.657,13.98 -28.918,0.07 -93.726,-21.81 -133.429,-12.22 v -56.31 H 144.449 V 1233.23 H 327.59 v -22.99 h 75.898 v 22.99 H 586.57 v 309.39 h -39.062"
         style="fill:#231f20;fill-opacity:1;fill-rule:nonzero;stroke:none"
         id="path246" /><path
         d="m 1429.57,1296.72 c 0,0 -14.45,-10.97 -54.36,0.38 -51.73,14.7 -74.71,-1.45 -74.71,-1.45 v 268.8 c 0,0 6.13,12.21 27.51,11.55 39.77,-1.17 78.71,-16.85 101.56,-12.86 z m -169.56,-1.07 c 0,0 -23.06,16.15 -74.6,1.45 -39.96,-11.35 -54.41,-0.38 -54.41,-0.38 v 266.42 c 22.87,-3.99 61.86,11.69 101.63,12.86 21.42,0.66 27.38,-11.55 27.38,-11.55 z m 207.3,246.97 v 56.31 c -39.77,-9.4 -104.49,12.22 -133.44,12.22 -31.95,0 -48.59,-13.98 -48.59,-13.98 0,0 -16.32,13.9 -48.61,13.98 -28.92,0.07 -93.71,-21.81 -133.44,-12.22 v -56.31 h -38.96 v -309.39 h 183.06 v -22.99 h 75.92 v 22.99 h 183.07 v 309.39 h -39.01"
         style="fill:#231f20;fill-opacity:1;fill-rule:nonzero;stroke:none"
         id="path248" /><path
         d="M 717.191,69.3008 823.32,41.9297 929.215,68.8789 V 890.77 h 672.365 v 188.58 H 929.215 v 615.01 H 717.191 V 1079.35 H 44.4492 V 890.77 H 717.191 V 69.3008"
         style="fill:#ed1c24;fill-opacity:1;fill-rule:nonzero;stroke:none"
         id="path250" /><path
         d="m 407.633,2022.99 c -68.508,5.92 -135.922,-18.55 -131.738,-22.73 10.511,-10.52 38.793,-92.81 74.527,-108.66 108.285,-30.46 213.387,-0.31 202.922,12.84 -28.735,36.17 -29.067,108.62 -145.711,118.55"
         style="fill:#ed1c24;fill-opacity:1;fill-rule:nonzero;stroke:none"
         id="path252" /><path
         d="m 936.004,2017.04 c -68.516,5.86 -136.012,-18.48 -131.781,-22.65 10.543,-10.52 38.914,-92.82 74.558,-108.72 108.375,-30.54 213.469,-0.33 202.949,12.9 -28.67,36.08 -29,108.59 -145.726,118.47"
         style="fill:#ed1c24;fill-opacity:1;fill-rule:nonzero;stroke:none"
         id="path254" /><path
         d="m 1405.11,1889.57 c 108.3,-30.51 179.74,-2.11 189.95,19.78 11.61,24.92 -16.14,101.72 -132.79,111.61 -68.54,5.86 -135.92,-18.48 -131.67,-22.66 10.43,-10.52 38.78,-92.81 74.51,-108.73"
         style="fill:#ed1c24;fill-opacity:1;fill-rule:nonzero;stroke:none"
         id="path256" /></g></g></svg>
