<svg id="Lager_2" data-name="Lager 2" xmlns="http://www.w3.org/2000/svg" xmlns:xlink="http://www.w3.org/1999/xlink" viewBox="0 0 594.86 262.32"><defs><style>.cls-1{fill:none;opacity:0.49;}.cls-2{clip-path:url(#clip-path);}.cls-3{fill:#7fbde4;}.cls-4{fill:#a0c547;}.cls-5{fill:#d8432d;}.cls-6{fill:#fcd925;}.cls-7{fill:#552b20;}.cls-8{fill:#fff;}.cls-9{fill:#2d9824;}.cls-10{font-size:16px;fill:#161615;font-family:Helvetica-Bold, Helvetica, Arial, sans-serif;font-weight:700;}.cls-11{fill:#999;}.cls-12{fill:#431d07;}</style><clipPath id="clip-path"><rect class="cls-1" x="-0.42" y="0.36" width="595.28" height="262.75"/></clipPath></defs><g class="cls-2"><g id="Layer_1" data-name="Layer 1"><rect class="cls-3" x="-0.42" y="-29.54" width="595.28" height="198.91" transform="translate(594.44 139.82) rotate(180)"/><path class="cls-4" d="M-.42,167.62V137.74s64.15-6.26,147.2-6.71,111.49,13.12,196.79,13,131-18.85,178.71-21.53,72.58,0,72.58,0v45.08L-.42,169.36"/><path class="cls-5" d="M64,127.52a13.38,13.38,0,0,1,5.77,1.31l18.95,9.55a5.25,5.25,0,0,0,1.68.5l9.46,1.29a12.61,12.61,0,0,1,9.39,6.53c-2.65.06-4.94.15-4.94.15l2.48,5.47h4c0,.12,0,.23,0,.35v6.61l-93.29-.2-4.81-5.76,1.76-11.93L25.77,130a8.61,8.61,0,0,1,6.09-2.52"/><path class="cls-6" d="M104.3,146.85s2.29-.09,4.94-.15a12.48,12.48,0,0,1,1.5,5.62h-4Z"/><circle class="cls-7" cx="31.55" cy="156.62" r="8.69"/><circle class="cls-8" cx="31.55" cy="156.62" r="5.18"/><circle class="cls-7" cx="95.19" cy="156.62" r="8.69"/><circle class="cls-8" cx="95.19" cy="156.62" r="5.18"/><path class="cls-8" d="M33.5,129.83H62a13.43,13.43,0,0,1,5.78,1.31l17.33,8.33H20.29l7.12-7.12A8.61,8.61,0,0,1,33.5,129.83Z"/><rect class="cls-5" x="27.17" y="134.68" width="17.97" height="4" transform="translate(-99.74 97.68) rotate(-59.17)"/><line class="cls-9" x1="58.56" y1="129.06" x2="58.56" y2="143.37"/><rect class="cls-5" x="56.56" y="129.06" width="4" height="14.31"/><text class="cls-10" transform="translate(247.87 34.12)">Stopping distance</text><polygon class="cls-8" points="502.9 37.9 501.53 39.35 507.3 44.83 124.08 44.83 129.85 39.35 128.48 37.9 120.12 45.83 128.48 53.76 129.85 52.31 124.08 46.83 507.3 46.83 501.53 52.31 502.9 53.76 511.26 45.83 502.9 37.9"/><text class="cls-10" transform="translate(157.79 89.97)">Reaction<tspan x="1.33" y="19.2">distance</tspan></text><text class="cls-10" transform="translate(322.88 108.97)">Braking distance</text><polygon class="cls-8" points="246.41 113.68 245.03 115.14 250.81 120.61 124.15 120.61 129.92 115.14 128.54 113.68 120.19 121.61 128.54 129.54 129.92 128.09 124.15 122.61 250.81 122.61 245.03 128.09 246.41 129.54 254.77 121.61 246.41 113.68"/><polygon class="cls-8" points="502.9 112.56 501.53 114.01 507.31 119.5 260.32 120.6 266.08 115.14 264.7 113.68 256.34 121.61 264.7 129.54 266.08 128.09 260.29 122.6 507.3 121.5 501.53 126.97 502.9 128.42 511.26 120.49 502.9 112.56"/><rect class="cls-11" x="-0.42" y="166.19" width="595.28" height="104.84" transform="translate(594.44 437.22) rotate(180)"/><path class="cls-12" d="M580.45,156.26l-2.09-11s-5-.78-6.53-2.35,1.3-9.93-3.14-11.24-17.61-.23-17.61-.23L546,129.34l-5.75-.26-3.35-1.74,4,.24a.42.42,0,0,0,.27-.07l6.11-4a.44.44,0,0,0-.3-.81l-2.2.26a.45.45,0,0,1-.47-.6l.84-2.3a.45.45,0,0,0-.67-.52l-3.06,2.06a.45.45,0,0,1-.69-.45l.24-1.5a.45.45,0,0,0-.75-.4l-.91.87a.45.45,0,0,1-.75-.39.45.45,0,0,0-.81-.31l-4.29,6.12-.28-.14-.15.14-1.35-3.81a.25.25,0,0,0-.48,0,.25.25,0,0,1-.46.09l-.36-.59a.25.25,0,0,0-.46.1l-.09.84a.24.24,0,0,1-.43.13L528,120.83a.24.24,0,0,0-.43.18l.11,1.34a.25.25,0,0,1-.34.25l-1.13-.46a.25.25,0,0,0-.28.39l2.67,3a.29.29,0,0,0,.13.08l3.4.72L525,133.13l1,2.48,6.27-.78,1.57,4.18h3.4l3.92,7.06-7.58,20.12h3l7.93-17.39-.35,5.89L556.37,161l.2-2.36-9.32-5.49,2.62-6.27,9-1.7,6.53,8.5-4.83,12.54h3.13l5.49-13.33-3.4-7.06,9.67,3.66,2.88,8.76,5,3.53v-3.66Z"/><circle class="cls-8" cx="118.66" cy="192.39" r="7.23"/><circle class="cls-8" cx="255.64" cy="192.39" r="7.23"/><circle class="cls-8" cx="514.11" cy="192.39" r="7.23"/><path class="cls-8" d="M118.66,46.82a1,1,0,0,1-.92-.62,1,1,0,0,1-.08-.38,1,1,0,0,1,.3-.71,1,1,0,0,1,1.41,0,1,1,0,0,1,.29.71,1,1,0,0,1-.07.38,1.19,1.19,0,0,1-.22.33A1,1,0,0,1,118.66,46.82Z"/><path class="cls-8" d="M117.66,176.22a1,1,0,0,1,1-1h0a1,1,0,0,1,1,1h0a1,1,0,0,1-1,1h0A1,1,0,0,1,117.66,176.22Zm0-5a1,1,0,0,1,1-1h0a1,1,0,0,1,1,1h0a1,1,0,0,1-1,1h0A1,1,0,0,1,117.66,171.21Zm0-5a1,1,0,0,1,1-1h0a1,1,0,0,1,1,1h0a1,1,0,0,1-1,1h0A1,1,0,0,1,117.66,166.19Zm0-5a1,1,0,0,1,1-1h0a1,1,0,0,1,1,1h0a1,1,0,0,1-1,1h0A1,1,0,0,1,117.66,161.18Zm0-5a1,1,0,0,1,1-1h0a1,1,0,0,1,1,1h0a1,1,0,0,1-1,1h0A1,1,0,0,1,117.66,156.16Zm0-5a1,1,0,0,1,1-1h0a1,1,0,0,1,1,1h0a1,1,0,0,1-1,1h0A1,1,0,0,1,117.66,151.15Zm0-5a1,1,0,0,1,1-1h0a1,1,0,0,1,1,1h0a1,1,0,0,1-1,1h0A1,1,0,0,1,117.66,146.13Zm0-5a1,1,0,0,1,1-1h0a1,1,0,0,1,1,1h0a1,1,0,0,1-1,1h0A1,1,0,0,1,117.66,141.11Zm0-5a1,1,0,0,1,1-1h0a1,1,0,0,1,1,1h0a1,1,0,0,1-1,1h0A1,1,0,0,1,117.66,136.1Zm0-5a1,1,0,0,1,1-1h0a1,1,0,0,1,1,1h0a1,1,0,0,1-1,1h0A1,1,0,0,1,117.66,131.08Zm0-5a1,1,0,0,1,1-1h0a1,1,0,0,1,1,1h0a1,1,0,0,1-1,1h0A1,1,0,0,1,117.66,126.07Zm0-5a1,1,0,0,1,1-1h0a1,1,0,0,1,1,1h0a1,1,0,0,1-1,1h0A1,1,0,0,1,117.66,121.05Zm0-5a1,1,0,0,1,1-1h0a1,1,0,0,1,1,1h0a1,1,0,0,1-1,1h0A1,1,0,0,1,117.66,116Zm0-5a1,1,0,0,1,1-1h0a1,1,0,0,1,1,1h0a1,1,0,0,1-1,1h0A1,1,0,0,1,117.66,111Zm0-5a1,1,0,0,1,1-1h0a1,1,0,0,1,1,1h0a1,1,0,0,1-1,1h0A1,1,0,0,1,117.66,106Zm0-5a1,1,0,0,1,1-1h0a1,1,0,0,1,1,1h0a1,1,0,0,1-1,1h0A1,1,0,0,1,117.66,101Zm0-5a1,1,0,0,1,1-1h0a1,1,0,0,1,1,1h0a1,1,0,0,1-1,1h0A1,1,0,0,1,117.66,96Zm0-5a1,1,0,0,1,1-1h0a1,1,0,0,1,1,1h0a1,1,0,0,1-1,1h0A1,1,0,0,1,117.66,91Zm0-5a1,1,0,0,1,1-1h0a1,1,0,0,1,1,1h0a1,1,0,0,1-1,1h0A1,1,0,0,1,117.66,85.94Zm0-5a1,1,0,0,1,1-1h0a1,1,0,0,1,1,1h0a1,1,0,0,1-1,1h0A1,1,0,0,1,117.66,80.93Zm0-5a1,1,0,0,1,1-1h0a1,1,0,0,1,1,1h0a1,1,0,0,1-1,1h0A1,1,0,0,1,117.66,75.91Zm0-5a1,1,0,0,1,1-1h0a1,1,0,0,1,1,1h0a1,1,0,0,1-1,1h0A1,1,0,0,1,117.66,70.9Zm0-5a1,1,0,0,1,1-1h0a1,1,0,0,1,1,1h0a1,1,0,0,1-1,1h0A1,1,0,0,1,117.66,65.88Zm0-5a1,1,0,0,1,1-1h0a1,1,0,0,1,1,1h0a1,1,0,0,1-1,1h0A1,1,0,0,1,117.66,60.86Zm0-5a1,1,0,0,1,1-1h0a1,1,0,0,1,1,1h0a1,1,0,0,1-1,1h0A1,1,0,0,1,117.66,55.85Zm0-5a1,1,0,0,1,1-1h0a1,1,0,0,1,1,1h0a1,1,0,0,1-1,1h0A1,1,0,0,1,117.66,50.83Z"/><path class="cls-8" d="M118.66,182.24a1,1,0,0,1-.7-.29.91.91,0,0,1-.22-.33.94.94,0,0,1,0-.76.83.83,0,0,1,.22-.33,1,1,0,0,1,1.41,0,1,1,0,0,1,.22.33,1.07,1.07,0,0,1,0,.76,1.06,1.06,0,0,1-.22.33A1,1,0,0,1,118.66,182.24Z"/><path class="cls-8" d="M513.76,46.82l-.19,0a.7.7,0,0,1-.19-.06,1,1,0,0,1-.32-.21,1,1,0,0,1-.29-.71,1,1,0,0,1,.29-.71.57.57,0,0,1,.15-.12,1,1,0,0,1,.17-.1l.19,0a1,1,0,0,1,.58,0,1,1,0,0,1,.32.22,1,1,0,0,1,.3.71,1,1,0,0,1-.3.71A1,1,0,0,1,513.76,46.82Z"/><path class="cls-8" d="M512.77,176.22a1,1,0,0,1,1-1h0a1,1,0,0,1,1,1h0a1,1,0,0,1-1,1h0A1,1,0,0,1,512.77,176.22Zm0-5a1,1,0,0,1,1-1h0a1,1,0,0,1,1,1h0a1,1,0,0,1-1,1h0A1,1,0,0,1,512.77,171.21Zm0-5a1,1,0,0,1,1-1h0a1,1,0,0,1,1,1h0a1,1,0,0,1-1,1h0A1,1,0,0,1,512.77,166.19Zm0-5a1,1,0,0,1,1-1h0a1,1,0,0,1,1,1h0a1,1,0,0,1-1,1h0A1,1,0,0,1,512.77,161.18Zm0-5a1,1,0,0,1,1-1h0a1,1,0,0,1,1,1h0a1,1,0,0,1-1,1h0A1,1,0,0,1,512.77,156.16Zm0-5a1,1,0,0,1,1-1h0a1,1,0,0,1,1,1h0a1,1,0,0,1-1,1h0A1,1,0,0,1,512.77,151.14Zm0-5a1,1,0,0,1,1-1h0a1,1,0,0,1,1,1h0a1,1,0,0,1-1,1h0A1,1,0,0,1,512.77,146.13Zm0-5a1,1,0,0,1,1-1h0a1,1,0,0,1,1,1h0a1,1,0,0,1-1,1h0A1,1,0,0,1,512.77,141.11Zm0-5a1,1,0,0,1,1-1h0a1,1,0,0,1,1,1h0a1,1,0,0,1-1,1h0A1,1,0,0,1,512.77,136.1Zm0-5a1,1,0,0,1,1-1h0a1,1,0,0,1,1,1h0a1,1,0,0,1-1,1h0A1,1,0,0,1,512.77,131.08Zm0-5a1,1,0,0,1,1-1h0a1,1,0,0,1,1,1h0a1,1,0,0,1-1,1h0A1,1,0,0,1,512.77,126.07Zm0-5a1,1,0,0,1,1-1h0a1,1,0,0,1,1,1h0a1,1,0,0,1-1,1h0A1,1,0,0,1,512.77,121.05Zm0-5a1,1,0,0,1,1-1h0a1,1,0,0,1,1,1h0a1,1,0,0,1-1,1h0A1,1,0,0,1,512.77,116Zm0-5a1,1,0,0,1,1-1h0a1,1,0,0,1,1,1h0a1,1,0,0,1-1,1h0A1,1,0,0,1,512.77,111Zm0-5a1,1,0,0,1,1-1h0a1,1,0,0,1,1,1h0a1,1,0,0,1-1,1h0A1,1,0,0,1,512.77,106Zm0-5a1,1,0,0,1,1-1h0a1,1,0,0,1,1,1h0a1,1,0,0,1-1,1h0A1,1,0,0,1,512.77,101Zm0-5a1,1,0,0,1,1-1h0a1,1,0,0,1,1,1h0a1,1,0,0,1-1,1h0A1,1,0,0,1,512.77,96Zm0-5a1,1,0,0,1,1-1h0a1,1,0,0,1,1,1h0a1,1,0,0,1-1,1h0A1,1,0,0,1,512.77,91Zm0-5a1,1,0,0,1,1-1h0a1,1,0,0,1,1,1h0a1,1,0,0,1-1,1h0A1,1,0,0,1,512.77,85.94Zm0-5a1,1,0,0,1,1-1h0a1,1,0,0,1,1,1h0a1,1,0,0,1-1,1h0A1,1,0,0,1,512.77,80.93Zm0-5a1,1,0,0,1,1-1h0a1,1,0,0,1,1,1h0a1,1,0,0,1-1,1h0A1,1,0,0,1,512.77,75.91Zm0-5a1,1,0,0,1,1-1h0a1,1,0,0,1,1,1h0a1,1,0,0,1-1,1h0A1,1,0,0,1,512.77,70.9Zm0-5a1,1,0,0,1,1-1h0a1,1,0,0,1,1,1h0a1,1,0,0,1-1,1h0A1,1,0,0,1,512.77,65.88Zm0-5a1,1,0,0,1,1-1h0a1,1,0,0,1,1,1h0a1,1,0,0,1-1,1h0A1,1,0,0,1,512.77,60.86Zm0-5a1,1,0,0,1,1-1h0a1,1,0,0,1,1,1h0a1,1,0,0,1-1,1h0A1,1,0,0,1,512.77,55.85Zm0-5a1,1,0,0,1,1-1h0a1,1,0,0,1,1,1h0a1,1,0,0,1-1,1h0A1,1,0,0,1,512.77,50.83Z"/><path class="cls-8" d="M513.76,182.24l-.19,0a.7.7,0,0,1-.19-.06.56.56,0,0,1-.17-.09l-.15-.12a1,1,0,0,1,0-1.42.88.88,0,0,1,.15-.12.56.56,0,0,1,.17-.09.7.7,0,0,1,.19-.06,1,1,0,0,1,.58.06,1,1,0,0,1,.32.21,1,1,0,0,1,0,1.42,1,1,0,0,1-.32.21A1,1,0,0,1,513.76,182.24Z"/><path class="cls-8" d="M255.65,126.48a1,1,0,0,1-.71-1.7,1,1,0,0,1,1.41,0,1,1,0,0,1-.7,1.7Z"/><path class="cls-8" d="M254.65,176.17a1,1,0,0,1,1-1h0a1,1,0,0,1,1,1h0a1,1,0,0,1-1,1h0A1,1,0,0,1,254.65,176.17Zm0-5.07a1,1,0,0,1,1-1h0a1,1,0,0,1,1,1h0a1,1,0,0,1-1,1h0A1,1,0,0,1,254.65,171.1Zm0-5.07a1,1,0,0,1,1-1h0a1,1,0,0,1,1,1h0a1,1,0,0,1-1,1h0A1,1,0,0,1,254.65,166Zm0-5.06a1,1,0,0,1,1-1h0a1,1,0,0,1,1,1h0a1,1,0,0,1-1,1h0A1,1,0,0,1,254.65,161Zm0-5.07a1,1,0,0,1,1-1h0a1,1,0,0,1,1,1h0a1,1,0,0,1-1,1h0A1,1,0,0,1,254.65,155.9Zm0-5.07a1,1,0,0,1,1-1h0a1,1,0,0,1,1,1h0a1,1,0,0,1-1,1h0A1,1,0,0,1,254.65,150.83Zm0-5.07a1,1,0,0,1,1-1h0a1,1,0,0,1,1,1h0a1,1,0,0,1-1,1h0A1,1,0,0,1,254.65,145.76Zm0-5.07a1,1,0,0,1,1-1h0a1,1,0,0,1,1,1h0a1,1,0,0,1-1,1h0A1,1,0,0,1,254.65,140.69Zm0-5.07a1,1,0,0,1,1-1h0a1,1,0,0,1,1,1h0a1,1,0,0,1-1,1h0A1,1,0,0,1,254.65,135.62Zm0-5.07a1,1,0,0,1,1-1h0a1,1,0,0,1,1,1h0a1,1,0,0,1-1,1h0A1,1,0,0,1,254.65,130.55Z"/><path class="cls-8" d="M255.65,182.24a1,1,0,0,1-.71-1.71,1,1,0,0,1,1.41,0,1,1,0,0,1-.7,1.71Z"/><text class="cls-10" transform="translate(91.98 220.79)">Hazard<tspan x="-6.22" y="19.2">detected</tspan></text><text class="cls-10" transform="translate(225.86 220.79)">Braking<tspan x="4" y="19.2">begins</tspan></text><text class="cls-10" transform="translate(485.65 220.79)">The car<tspan x="-13.33" y="19.2">stands still</tspan></text></g></g></svg>